<svg xmlns="http://www.w3.org/2000/svg" viewBox="0 0 67.06 69.93"><defs><style>.cls-1{fill:#fff;}</style></defs><title>hakooi-Dots</title><g id="Layer_2" data-name="Layer 2"><g id="objects"><path class="cls-1" d="M2.3,28.2a1.15,1.15,0,1,0-1.15,1.15A1.15,1.15,0,0,0,2.3,28.2Z"/><path class="cls-1" d="M15.25,28.2a1.15,1.15,0,1,0-1.15,1.15A1.15,1.15,0,0,0,15.25,28.2Z"/><path class="cls-1" d="M28.2,28.2a1.15,1.15,0,1,0-1.15,1.15A1.15,1.15,0,0,0,28.2,28.2Z"/><path class="cls-1" d="M41.15,28.2A1.15,1.15,0,1,0,40,29.35,1.15,1.15,0,0,0,41.15,28.2Z"/><path class="cls-1" d="M54.1,28.2A1.15,1.15,0,1,0,53,29.35,1.15,1.15,0,0,0,54.1,28.2Z"/><path class="cls-1" d="M67.06,28.2a1.16,1.16,0,1,0-1.16,1.15A1.16,1.16,0,0,0,67.06,28.2Z"/><circle class="cls-1" cx="1.15" cy="41.73" r="1.15"/><path class="cls-1" d="M15.25,41.73a1.15,1.15,0,1,0-1.15,1.15A1.14,1.14,0,0,0,15.25,41.73Z"/><path class="cls-1" d="M28.2,41.73a1.15,1.15,0,1,0-1.15,1.15A1.14,1.14,0,0,0,28.2,41.73Z"/><circle class="cls-1" cx="40" cy="41.73" r="1.15"/><path class="cls-1" d="M54.1,41.73A1.15,1.15,0,1,0,53,42.88,1.14,1.14,0,0,0,54.1,41.73Z"/><path class="cls-1" d="M67.06,41.73a1.16,1.16,0,1,0-1.16,1.15A1.15,1.15,0,0,0,67.06,41.73Z"/><path class="cls-1" d="M2.3,1.15A1.15,1.15,0,1,0,1.15,2.3,1.15,1.15,0,0,0,2.3,1.15Z"/><path class="cls-1" d="M15.25,1.15A1.15,1.15,0,1,0,14.1,2.3,1.15,1.15,0,0,0,15.25,1.15Z"/><path class="cls-1" d="M28.2,1.15A1.15,1.15,0,1,0,27.05,2.3,1.15,1.15,0,0,0,28.2,1.15Z"/><path class="cls-1" d="M41.15,1.15A1.15,1.15,0,1,0,40,2.3,1.15,1.15,0,0,0,41.15,1.15Z"/><path class="cls-1" d="M54.1,1.15A1.15,1.15,0,1,0,53,2.3,1.15,1.15,0,0,0,54.1,1.15Z"/><path class="cls-1" d="M67.06,1.15A1.16,1.16,0,1,0,65.9,2.3,1.16,1.16,0,0,0,67.06,1.15Z"/><path class="cls-1" d="M2.3,14.68a1.15,1.15,0,0,0-2.3,0,1.15,1.15,0,0,0,2.3,0Z"/><path class="cls-1" d="M15.25,14.68a1.15,1.15,0,0,0-2.3,0,1.15,1.15,0,0,0,2.3,0Z"/><path class="cls-1" d="M28.2,14.68a1.15,1.15,0,1,0-2.3,0,1.15,1.15,0,1,0,2.3,0Z"/><path class="cls-1" d="M41.15,14.68a1.15,1.15,0,0,0-2.3,0,1.15,1.15,0,0,0,2.3,0Z"/><path class="cls-1" d="M54.1,14.68a1.15,1.15,0,0,0-2.3,0,1.15,1.15,0,1,0,2.3,0Z"/><path class="cls-1" d="M67.06,14.68a1.16,1.16,0,1,0-1.16,1.15A1.15,1.15,0,0,0,67.06,14.68Z"/><circle class="cls-1" cx="1.15" cy="55.26" r="1.15"/><path class="cls-1" d="M15.25,55.26a1.15,1.15,0,1,0-1.15,1.15A1.15,1.15,0,0,0,15.25,55.26Z"/><path class="cls-1" d="M28.2,55.26a1.15,1.15,0,1,0-1.15,1.15A1.15,1.15,0,0,0,28.2,55.26Z"/><circle class="cls-1" cx="40" cy="55.26" r="1.15"/><path class="cls-1" d="M54.1,55.26A1.15,1.15,0,1,0,53,56.41,1.15,1.15,0,0,0,54.1,55.26Z"/><path class="cls-1" d="M67.06,55.26a1.16,1.16,0,1,0-1.16,1.15A1.16,1.16,0,0,0,67.06,55.26Z"/><path class="cls-1" d="M2.3,68.78a1.15,1.15,0,1,0-1.15,1.15A1.15,1.15,0,0,0,2.3,68.78Z"/><path class="cls-1" d="M15.25,68.78a1.15,1.15,0,1,0-1.15,1.15A1.15,1.15,0,0,0,15.25,68.78Z"/><path class="cls-1" d="M28.2,68.78a1.15,1.15,0,1,0-1.15,1.15A1.15,1.15,0,0,0,28.2,68.78Z"/><path class="cls-1" d="M41.15,68.78A1.15,1.15,0,1,0,40,69.93,1.15,1.15,0,0,0,41.15,68.78Z"/><path class="cls-1" d="M54.1,68.78A1.15,1.15,0,1,0,53,69.93,1.15,1.15,0,0,0,54.1,68.78Z"/><path class="cls-1" d="M67.06,68.78a1.16,1.16,0,1,0-1.16,1.15A1.16,1.16,0,0,0,67.06,68.78Z"/></g></g></svg>